<svg width="44" height="20" viewBox="0 0 44 20" fill="none" xmlns="http://www.w3.org/2000/svg">
<mask id="path-1-inside-1_29172_115190" fill="white">
<path fill-rule="evenodd" clip-rule="evenodd" d="M27.7995 4H15.7995V9.5H10.9267L8.05201 6L7.28541 6.93333L9.49953 9.64376V10.3562L7.28541 13.0667L8.05201 14L10.9267 10.5H15.7995V16H27.7995V10.5H32.4107L35.2854 14L36.052 13.0667L33.5469 10L36.052 6.93333L35.2854 6L32.4107 9.5H27.7995V4ZM39.3374 13.0667L38.5708 14L35.2854 10L38.5708 6L39.3374 6.93333L36.8323 10L39.3374 13.0667ZM4.7666 6L4 6.93333L6.50513 10L4 13.0667L4.7666 14L8.05201 10L4.7666 6Z"/>
</mask>
<path d="M15.7995 4V3H14.7995V4H15.7995ZM27.7995 4H28.7995V3H27.7995V4ZM15.7995 9.5V10.5H16.7995V9.5H15.7995ZM10.9267 9.5L10.154 10.1347L10.454 10.5H10.9267V9.5ZM8.05201 6L8.82476 5.3653L8.05201 4.42446L7.27925 5.3653L8.05201 6ZM7.28541 6.93333L6.51266 6.29863L5.99276 6.93161L6.51097 7.56597L7.28541 6.93333ZM9.49953 9.64376H10.4995V9.28723L10.274 9.01112L9.49953 9.64376ZM9.49953 10.3562L10.274 10.9889L10.4995 10.7128V10.3562H9.49953ZM7.28541 13.0667L6.51097 12.434L5.99276 13.0684L6.51266 13.7014L7.28541 13.0667ZM8.05201 14L7.27925 14.6347L8.05201 15.5755L8.82476 14.6347L8.05201 14ZM10.9267 10.5V9.5H10.454L10.154 9.8653L10.9267 10.5ZM15.7995 10.5H16.7995V9.5H15.7995V10.5ZM15.7995 16H14.7995V17H15.7995V16ZM27.7995 16V17H28.7995V16H27.7995ZM27.7995 10.5V9.5H26.7995V10.5H27.7995ZM32.4107 10.5L33.1834 9.8653L32.8834 9.5H32.4107V10.5ZM35.2854 14L34.5127 14.6347L35.2854 15.5755L36.0582 14.6347L35.2854 14ZM36.052 13.0667L36.8248 13.7014L37.3447 13.0684L36.8265 12.434L36.052 13.0667ZM33.5469 10L32.7724 9.36736L32.2556 10L32.7724 10.6326L33.5469 10ZM36.052 6.93333L36.8265 7.56597L37.3447 6.93161L36.8248 6.29863L36.052 6.93333ZM35.2854 6L36.0582 5.36529L35.2854 4.42446L34.5127 5.3653L35.2854 6ZM32.4107 9.5V10.5H32.8834L33.1834 10.1347L32.4107 9.5ZM27.7995 9.5H26.7995V10.5H27.7995V9.5ZM38.5708 14L37.7981 14.6347L38.5708 15.5755L39.3436 14.6347L38.5708 14ZM39.3374 13.0667L40.1102 13.7014L40.6301 13.0684L40.1119 12.434L39.3374 13.0667ZM35.2854 10L34.5127 9.3653L33.9913 10L34.5127 10.6347L35.2854 10ZM38.5708 6L39.3436 5.36529L38.5708 4.42446L37.7981 5.3653L38.5708 6ZM39.3374 6.93333L40.1119 7.56597L40.6301 6.93161L40.1102 6.29863L39.3374 6.93333ZM36.8323 10L36.0578 9.36736L35.5411 10L36.0578 10.6326L36.8323 10ZM4 6.93333L3.22725 6.29863L2.70735 6.93161L3.22555 7.56597L4 6.93333ZM4.7666 6L5.53935 5.3653L4.7666 4.42446L3.99384 5.3653L4.7666 6ZM6.50513 10L7.27958 10.6326L7.79637 10L7.27958 9.36736L6.50513 10ZM4 13.0667L3.22555 12.434L2.70735 13.0684L3.22725 13.7014L4 13.0667ZM4.7666 14L3.99384 14.6347L4.7666 15.5755L5.53935 14.6347L4.7666 14ZM8.05201 10L8.82476 10.6347L9.34608 10L8.82476 9.3653L8.05201 10ZM15.7995 4V5H27.7995V4V3H15.7995V4ZM15.7995 9.5H16.7995V4H15.7995H14.7995V9.5H15.7995ZM10.9267 9.5V10.5H15.7995V9.5V8.5H10.9267V9.5ZM8.05201 6L7.27925 6.6347L10.154 10.1347L10.9267 9.5L11.6995 8.8653L8.82476 5.3653L8.05201 6ZM7.28541 6.93333L8.05817 7.56804L8.82476 6.6347L8.05201 6L7.27925 5.3653L6.51266 6.29863L7.28541 6.93333ZM9.49953 9.64376L10.274 9.01112L8.05986 6.3007L7.28541 6.93333L6.51097 7.56597L8.72508 10.2764L9.49953 9.64376ZM9.49953 10.3562H10.4995V9.64376H9.49953H8.49953V10.3562H9.49953ZM7.28541 13.0667L8.05986 13.6993L10.274 10.9889L9.49953 10.3562L8.72508 9.7236L6.51097 12.434L7.28541 13.0667ZM8.05201 14L8.82476 13.3653L8.05817 12.432L7.28541 13.0667L6.51266 13.7014L7.27925 14.6347L8.05201 14ZM10.9267 10.5L10.154 9.8653L7.27925 13.3653L8.05201 14L8.82476 14.6347L11.6995 11.1347L10.9267 10.5ZM15.7995 10.5V9.5H10.9267V10.5V11.5H15.7995V10.5ZM15.7995 16H16.7995V10.5H15.7995H14.7995V16H15.7995ZM27.7995 16V15H15.7995V16V17H27.7995V16ZM27.7995 10.5H26.7995V16H27.7995H28.7995V10.5H27.7995ZM32.4107 10.5V9.5H27.7995V10.5V11.5H32.4107V10.5ZM35.2854 14L36.0582 13.3653L33.1834 9.8653L32.4107 10.5L31.6379 11.1347L34.5127 14.6347L35.2854 14ZM36.052 13.0667L35.2793 12.432L34.5127 13.3653L35.2854 14L36.0582 14.6347L36.8248 13.7014L36.052 13.0667ZM33.5469 10L32.7724 10.6326L35.2776 13.6993L36.052 13.0667L36.8265 12.434L34.3213 9.36736L33.5469 10ZM36.052 6.93333L35.2776 6.30069L32.7724 9.36736L33.5469 10L34.3213 10.6326L36.8265 7.56597L36.052 6.93333ZM35.2854 6L34.5127 6.6347L35.2793 7.56804L36.052 6.93333L36.8248 6.29863L36.0582 5.36529L35.2854 6ZM32.4107 9.5L33.1834 10.1347L36.0582 6.6347L35.2854 6L34.5127 5.3653L31.6379 8.8653L32.4107 9.5ZM27.7995 9.5V10.5H32.4107V9.5V8.5H27.7995V9.5ZM27.7995 4H26.7995V9.5H27.7995H28.7995V4H27.7995ZM38.5708 14L39.3436 14.6347L40.1102 13.7014L39.3374 13.0667L38.5647 12.432L37.7981 13.3653L38.5708 14ZM35.2854 10L34.5127 10.6347L37.7981 14.6347L38.5708 14L39.3436 13.3653L36.0582 9.3653L35.2854 10ZM38.5708 6L37.7981 5.3653L34.5127 9.3653L35.2854 10L36.0582 10.6347L39.3436 6.6347L38.5708 6ZM39.3374 6.93333L40.1102 6.29863L39.3436 5.36529L38.5708 6L37.7981 6.6347L38.5647 7.56804L39.3374 6.93333ZM36.8323 10L37.6067 10.6326L40.1119 7.56597L39.3374 6.93333L38.563 6.30069L36.0578 9.36736L36.8323 10ZM39.3374 13.0667L40.1119 12.434L37.6067 9.36736L36.8323 10L36.0578 10.6326L38.563 13.6993L39.3374 13.0667ZM4 6.93333L4.77275 7.56804L5.53935 6.6347L4.7666 6L3.99384 5.3653L3.22725 6.29863L4 6.93333ZM6.50513 10L7.27958 9.36736L4.77445 6.3007L4 6.93333L3.22555 7.56597L5.73068 10.6326L6.50513 10ZM4 13.0667L4.77445 13.6993L7.27958 10.6326L6.50513 10L5.73068 9.36736L3.22555 12.434L4 13.0667ZM4.7666 14L5.53935 13.3653L4.77275 12.432L4 13.0667L3.22725 13.7014L3.99384 14.6347L4.7666 14ZM8.05201 10L7.27925 9.3653L3.99384 13.3653L4.7666 14L5.53935 14.6347L8.82476 10.6347L8.05201 10ZM4.7666 6L3.99384 6.6347L7.27925 10.6347L8.05201 10L8.82476 9.3653L5.53935 5.3653L4.7666 6Z" fill="#964B00" mask="url(#path-1-inside-1_29172_115190)"/>
</svg>
