<svg width="42" height="20" viewBox="0 0 42 20" fill="none" xmlns="http://www.w3.org/2000/svg">
<mask id="path-1-inside-1_29172_115277" fill="white">
<path fill-rule="evenodd" clip-rule="evenodd" d="M4.86636 5.47949L4 6.53429L6.83115 10.0001L4 13.4658L4.86636 14.5206L8.57935 10.0001L4.86636 5.47949ZM8.57935 5.47949L7.71299 6.53429L10.5441 10.0001L7.71299 13.4658L8.57935 14.5206L11.828 10.5654H37.3397V9.56541H11.9353L8.57935 5.47949Z"/>
</mask>
<path d="M4 6.53429L3.22725 5.89959L2.70735 6.53257L3.22555 7.16693L4 6.53429ZM4.86636 5.47949L5.63912 4.84479L4.86636 3.90396L4.09361 4.84479L4.86636 5.47949ZM6.83115 10.0001L7.6056 10.6327L8.1224 10.0001L7.6056 9.36743L6.83115 10.0001ZM4 13.4658L3.22555 12.8332L2.70735 13.4676L3.22725 14.1005L4 13.4658ZM4.86636 14.5206L4.09361 15.1553L4.86636 16.0962L5.63912 15.1553L4.86636 14.5206ZM8.57935 10.0001L9.35211 10.6348L9.87343 10.0001L9.35211 9.36536L8.57935 10.0001ZM7.71299 6.53429L6.94023 5.89959L6.42034 6.53257L6.93854 7.16693L7.71299 6.53429ZM8.57935 5.47949L9.35211 4.84479L8.57935 3.90396L7.8066 4.84479L8.57935 5.47949ZM10.5441 10.0001L11.3186 10.6327L11.8354 10.0001L11.3186 9.36743L10.5441 10.0001ZM7.71299 13.4658L6.93854 12.8332L6.42034 13.4676L6.94023 14.1005L7.71299 13.4658ZM8.57935 14.5206L7.8066 15.1553L8.57935 16.0962L9.35211 15.1553L8.57935 14.5206ZM11.828 10.5654V9.56541H11.3553L11.0552 9.93071L11.828 10.5654ZM37.3397 10.5654V11.5654H38.3397V10.5654H37.3397ZM37.3397 9.56541H38.3397V8.56541H37.3397V9.56541ZM11.9353 9.56541L11.1626 10.2001L11.4626 10.5654H11.9353V9.56541ZM4 6.53429L4.77275 7.169L5.63912 6.1142L4.86636 5.47949L4.09361 4.84479L3.22725 5.89959L4 6.53429ZM6.83115 10.0001L7.6056 9.36743L4.77445 5.90166L4 6.53429L3.22555 7.16693L6.05671 10.6327L6.83115 10.0001ZM4 13.4658L4.77445 14.0985L7.6056 10.6327L6.83115 10.0001L6.05671 9.36743L3.22555 12.8332L4 13.4658ZM4.86636 14.5206L5.63912 13.8859L4.77275 12.8311L4 13.4658L3.22725 14.1005L4.09361 15.1553L4.86636 14.5206ZM8.57935 10.0001L7.8066 9.36536L4.09361 13.8859L4.86636 14.5206L5.63912 15.1553L9.35211 10.6348L8.57935 10.0001ZM4.86636 5.47949L4.09361 6.1142L7.8066 10.6348L8.57935 10.0001L9.35211 9.36536L5.63912 4.84479L4.86636 5.47949ZM7.71299 6.53429L8.48574 7.169L9.35211 6.1142L8.57935 5.47949L7.8066 4.84479L6.94023 5.89959L7.71299 6.53429ZM10.5441 10.0001L11.3186 9.36743L8.48744 5.90166L7.71299 6.53429L6.93854 7.16693L9.7697 10.6327L10.5441 10.0001ZM7.71299 13.4658L8.48744 14.0985L11.3186 10.6327L10.5441 10.0001L9.7697 9.36743L6.93854 12.8332L7.71299 13.4658ZM8.57935 14.5206L9.35211 13.8859L8.48574 12.8311L7.71299 13.4658L6.94023 14.1005L7.8066 15.1553L8.57935 14.5206ZM11.828 10.5654L11.0552 9.93071L7.8066 13.8859L8.57935 14.5206L9.35211 15.1553L12.6008 11.2001L11.828 10.5654ZM37.3397 10.5654V9.56541H11.828V10.5654V11.5654H37.3397V10.5654ZM37.3397 9.56541H36.3397V10.5654H37.3397H38.3397V9.56541H37.3397ZM11.9353 9.56541V10.5654H37.3397V9.56541V8.56541H11.9353V9.56541ZM8.57935 5.47949L7.8066 6.1142L11.1626 10.2001L11.9353 9.56541L12.7081 8.93071L9.35211 4.84479L8.57935 5.47949Z" fill="#964B00" mask="url(#path-1-inside-1_29172_115277)"/>
</svg>
