<svg width="42" height="20" viewBox="0 0 42 20" fill="none" xmlns="http://www.w3.org/2000/svg">
<mask id="path-1-inside-1_29172_115196" fill="white">
<path fill-rule="evenodd" clip-rule="evenodd" d="M10.5708 14L11.3374 13.0667L9.24074 10.5H32.0972L30.0005 13.0667L30.7671 14L34.0525 10L30.7671 6L30.0005 6.93333L32.0972 9.5H9.24074L11.3374 6.93333L10.5708 6L7.28541 10L10.5708 14ZM7.28541 14L8.05201 13.0667L5.54688 10L8.05201 6.93333L7.28541 6L4 10L7.28541 14ZM32.5056 10L32.5 10.0069V9.99315L32.5056 10ZM33.2859 6.93333L34.0525 6L37.3379 10L34.0525 14L33.2859 13.0667L35.791 10L33.2859 6.93333Z"/>
</mask>
<path d="M11.3374 13.0667L12.1102 13.7014L12.6301 13.0684L12.1119 12.434L11.3374 13.0667ZM10.5708 14L9.79807 14.6347L10.5708 15.5755L11.3436 14.6347L10.5708 14ZM9.24074 10.5V9.5H7.13261L8.46629 11.1326L9.24074 10.5ZM32.0972 10.5L32.8716 11.1326L34.2053 9.5H32.0972V10.5ZM30.0005 13.0667L29.226 12.434L28.7078 13.0684L29.2277 13.7014L30.0005 13.0667ZM30.7671 14L29.9943 14.6347L30.7671 15.5755L31.5398 14.6347L30.7671 14ZM34.0525 10L34.8252 10.6347L35.3465 10L34.8252 9.3653L34.0525 10ZM30.7671 6L31.5398 5.3653L30.7671 4.42446L29.9943 5.3653L30.7671 6ZM30.0005 6.93333L29.2277 6.29863L28.7078 6.93161L29.226 7.56597L30.0005 6.93333ZM32.0972 9.5V10.5H34.2053L32.8716 8.86736L32.0972 9.5ZM9.24074 9.5L8.46629 8.86736L7.13261 10.5H9.24074V9.5ZM11.3374 6.93333L12.1119 7.56597L12.6301 6.93161L12.1102 6.29863L11.3374 6.93333ZM10.5708 6L11.3436 5.3653L10.5708 4.42446L9.79807 5.3653L10.5708 6ZM7.28541 10L6.51266 9.3653L5.99134 10L6.51266 10.6347L7.28541 10ZM8.05201 13.0667L8.82476 13.7014L9.34466 13.0684L8.82646 12.434L8.05201 13.0667ZM7.28541 14L6.51266 14.6347L7.28541 15.5755L8.05817 14.6347L7.28541 14ZM5.54688 10L4.77243 9.36736L4.25564 10L4.77243 10.6326L5.54688 10ZM8.05201 6.93333L8.82646 7.56597L9.34466 6.93161L8.82476 6.29863L8.05201 6.93333ZM7.28541 6L8.05817 5.3653L7.28541 4.42446L6.51266 5.3653L7.28541 6ZM4 10L3.22725 9.3653L2.70593 10L3.22725 10.6347L4 10ZM32.5 10.0069H31.5V12.8117L33.2745 10.6395L32.5 10.0069ZM32.5056 10L33.2801 10.6326L33.7968 9.99999L33.28 9.36736L32.5056 10ZM32.5 9.99315L33.2744 9.36051L31.5 7.18834V9.99315H32.5ZM34.0525 6L34.8252 5.3653L34.0525 4.42446L33.2797 5.36529L34.0525 6ZM33.2859 6.93333L32.5131 6.29863L31.9932 6.93161L32.5114 7.56597L33.2859 6.93333ZM37.3379 10L38.1106 10.6347L38.632 10L38.1106 9.3653L37.3379 10ZM34.0525 14L33.2797 14.6347L34.0525 15.5755L34.8252 14.6347L34.0525 14ZM33.2859 13.0667L32.5114 12.434L31.9932 13.0684L32.5131 13.7014L33.2859 13.0667ZM35.791 10L36.5655 10.6326L37.0823 10L36.5655 9.36736L35.791 10ZM11.3374 13.0667L10.5647 12.432L9.79807 13.3653L10.5708 14L11.3436 14.6347L12.1102 13.7014L11.3374 13.0667ZM9.24074 10.5L8.46629 11.1326L10.563 13.6993L11.3374 13.0667L12.1119 12.434L10.0152 9.86736L9.24074 10.5ZM9.24074 10.5V11.5H32.0972V10.5V9.5H9.24074V10.5ZM32.0972 10.5L31.3227 9.86736L29.226 12.434L30.0005 13.0667L30.7749 13.6993L32.8716 11.1326L32.0972 10.5ZM30.0005 13.0667L29.2277 13.7014L29.9943 14.6347L30.7671 14L31.5398 13.3653L30.7732 12.432L30.0005 13.0667ZM30.7671 14L31.5398 14.6347L34.8252 10.6347L34.0525 10L33.2797 9.3653L29.9943 13.3653L30.7671 14ZM34.0525 10L34.8252 9.3653L31.5398 5.3653L30.7671 6L29.9943 6.6347L33.2797 10.6347L34.0525 10ZM30.7671 6L29.9943 5.3653L29.2277 6.29863L30.0005 6.93333L30.7732 7.56804L31.5398 6.6347L30.7671 6ZM30.0005 6.93333L29.226 7.56597L31.3227 10.1326L32.0972 9.5L32.8716 8.86736L30.7749 6.3007L30.0005 6.93333ZM32.0972 9.5V8.5H9.24074V9.5V10.5H32.0972V9.5ZM11.3374 6.93333L10.563 6.30069L8.46629 8.86736L9.24074 9.5L10.0152 10.1326L12.1119 7.56597L11.3374 6.93333ZM10.5708 6L9.79807 6.6347L10.5647 7.56804L11.3374 6.93333L12.1102 6.29863L11.3436 5.3653L10.5708 6ZM7.28541 10L8.05817 10.6347L11.3436 6.6347L10.5708 6L9.79807 5.3653L6.51266 9.3653L7.28541 10ZM10.5708 14L11.3436 13.3653L8.05817 9.3653L7.28541 10L6.51266 10.6347L9.79807 14.6347L10.5708 14ZM8.05201 13.0667L7.27925 12.432L6.51266 13.3653L7.28541 14L8.05817 14.6347L8.82476 13.7014L8.05201 13.0667ZM5.54688 10L4.77243 10.6326L7.27756 13.6993L8.05201 13.0667L8.82646 12.434L6.32133 9.36736L5.54688 10ZM8.05201 6.93333L7.27756 6.30069L4.77243 9.36736L5.54688 10L6.32133 10.6326L8.82646 7.56597L8.05201 6.93333ZM7.28541 6L6.51266 6.6347L7.27925 7.56804L8.05201 6.93333L8.82476 6.29863L8.05817 5.3653L7.28541 6ZM4 10L4.77275 10.6347L8.05817 6.6347L7.28541 6L6.51266 5.3653L3.22725 9.3653L4 10ZM7.28541 14L8.05817 13.3653L4.77275 9.3653L4 10L3.22725 10.6347L6.51266 14.6347L7.28541 14ZM32.5 10.0069L33.2745 10.6395L33.2801 10.6326L32.5056 10L31.7311 9.36737L31.7255 9.37422L32.5 10.0069ZM32.5 9.99315H31.5V10.0069H32.5H33.5V9.99315H32.5ZM32.5056 10L33.28 9.36736L33.2744 9.36051L32.5 9.99315L31.7256 10.6258L31.7312 10.6326L32.5056 10ZM34.0525 6L33.2797 5.36529L32.5131 6.29863L33.2859 6.93333L34.0586 7.56804L34.8252 6.63471L34.0525 6ZM37.3379 10L38.1106 9.3653L34.8252 5.3653L34.0525 6L33.2797 6.6347L36.5651 10.6347L37.3379 10ZM34.0525 14L34.8252 14.6347L38.1106 10.6347L37.3379 10L36.5651 9.3653L33.2797 13.3653L34.0525 14ZM33.2859 13.0667L32.5131 13.7014L33.2797 14.6347L34.0525 14L34.8252 13.3653L34.0586 12.432L33.2859 13.0667ZM35.791 10L35.0166 9.36736L32.5114 12.434L33.2859 13.0667L34.0603 13.6993L36.5655 10.6326L35.791 10ZM33.2859 6.93333L32.5114 7.56597L35.0166 10.6326L35.791 10L36.5655 9.36736L34.0603 6.3007L33.2859 6.93333Z" fill="#964B00" mask="url(#path-1-inside-1_29172_115196)"/>
</svg>
