<svg width="40" height="20" viewBox="0 0 40 20" fill="none" xmlns="http://www.w3.org/2000/svg">
<mask id="path-1-inside-1_29172_115206" fill="white">
<path d="M29.3242 13H13.3242V7H29.3242V13Z"/>
</mask>
<path d="M29.3242 13V14H30.3242V13H29.3242ZM13.3242 13H12.3242V14H13.3242V13ZM13.3242 7V6H12.3242V7H13.3242ZM29.3242 7H30.3242V6H29.3242V7ZM29.3242 13V12H13.3242V13V14H29.3242V13ZM13.3242 13H14.3242V7H13.3242H12.3242V13H13.3242ZM13.3242 7V8H29.3242V7V6H13.3242V7ZM29.3242 7H28.3242V13H29.3242H30.3242V7H29.3242Z" fill="#964B00" mask="url(#path-1-inside-1_29172_115206)"/>
</svg>
