<svg width="23" height="20" viewBox="0 0 23 20" fill="none" xmlns="http://www.w3.org/2000/svg">
<mask id="path-1-inside-1_29172_115215" fill="white">
<path d="M7.99316 5.69189C8.98588 5.69207 9.98651 6.05875 10.7412 6.80029C11.5011 7.54712 11.9821 8.64462 11.9854 10.0493C11.988 11.2257 12.3635 12.0448 12.875 12.561C13.3894 13.08 14.0758 13.3287 14.7686 13.3071C16.127 13.2644 17.5787 12.1648 17.584 9.84326L18.084 9.84521L18.584 9.84619C18.5774 12.6691 16.734 14.2454 14.7998 14.3062C13.8466 14.3358 12.8866 13.9922 12.165 13.2642C11.4404 12.5328 10.9886 11.4482 10.9854 10.0522C10.9827 8.88501 10.5898 8.05259 10.041 7.51318C9.48697 6.9688 8.74349 6.69207 7.99316 6.69189C7.24273 6.69189 6.4995 6.96881 5.94531 7.51318C5.39635 8.05258 5.00267 8.8847 5 10.0522L4.5 10.0503L4 10.0493C4.00327 8.64462 4.48423 7.54712 5.24414 6.80029C5.999 6.05872 7.00032 5.69189 7.99316 5.69189Z"/>
</mask>
<path d="M7.99316 5.69189C8.98588 5.69207 9.98651 6.05875 10.7412 6.80029C11.5011 7.54712 11.9821 8.64462 11.9854 10.0493C11.988 11.2257 12.3635 12.0448 12.875 12.561C13.3894 13.08 14.0758 13.3287 14.7686 13.3071C16.127 13.2644 17.5787 12.1648 17.584 9.84326L18.084 9.84521L18.584 9.84619C18.5774 12.6691 16.734 14.2454 14.7998 14.3062C13.8466 14.3358 12.8866 13.9922 12.165 13.2642C11.4404 12.5328 10.9886 11.4482 10.9854 10.0522C10.9827 8.88501 10.5898 8.05259 10.041 7.51318C9.48697 6.9688 8.74349 6.69207 7.99316 6.69189C7.24273 6.69189 6.4995 6.96881 5.94531 7.51318C5.39635 8.05258 5.00267 8.8847 5 10.0522L4.5 10.0503L4 10.0493C4.00327 8.64462 4.48423 7.54712 5.24414 6.80029C5.999 6.05872 7.00032 5.69189 7.99316 5.69189Z" fill="#964B00"/>
<path d="M7.99316 5.69189L7.99334 4.69189H7.99316V5.69189ZM10.7412 6.80029L11.4422 6.08707L11.4421 6.087L10.7412 6.80029ZM11.9854 10.0493L12.9853 10.047V10.047L11.9854 10.0493ZM12.875 12.561L12.1647 13.2649L12.1648 13.265L12.875 12.561ZM14.7686 13.3071L14.7996 14.3066L14.8 14.3066L14.7686 13.3071ZM17.584 9.84326L17.5879 8.84327L16.5863 8.83936L16.584 9.84098L17.584 9.84326ZM18.084 9.84521L18.0801 10.8452L18.082 10.8452L18.084 9.84521ZM18.584 9.84619L19.584 9.84852L19.5863 8.84815L18.5859 8.84619L18.584 9.84619ZM14.7998 14.3062L14.8309 15.3057L14.8312 15.3057L14.7998 14.3062ZM12.165 13.2642L11.4547 13.968L11.4548 13.9681L12.165 13.2642ZM10.9854 10.0522L9.98535 10.0545L9.98535 10.0546L10.9854 10.0522ZM10.041 7.51318L10.742 6.80004L10.7419 6.79989L10.041 7.51318ZM7.99316 6.69189L7.9934 5.69189H7.99316V6.69189ZM5.94531 7.51318L5.24455 6.79979L5.24445 6.79989L5.94531 7.51318ZM5 10.0522L4.99609 11.0522L5.99771 11.0562L6 10.0545L5 10.0522ZM4.5 10.0503L4.50391 9.0503L4.50195 9.05029L4.5 10.0503ZM4 10.0493L3 10.047L2.99767 11.0474L3.99805 11.0493L4 10.0493ZM5.24414 6.80029L4.54334 6.08694L4.5432 6.08707L5.24414 6.80029ZM7.99316 5.69189L7.99299 6.69189C8.74337 6.69203 9.48626 6.96916 10.0403 7.51359L10.7412 6.80029L11.4421 6.087C10.4868 5.14834 9.22839 4.69211 7.99334 4.69189L7.99316 5.69189ZM10.7412 6.80029L10.0403 7.51351C10.589 8.05276 10.9826 8.8842 10.9854 10.0516L11.9854 10.0493L12.9853 10.047C12.9815 8.40504 12.4133 7.04149 11.4422 6.08707L10.7412 6.80029ZM11.9854 10.0493L10.9854 10.0516C10.9885 11.4482 11.4401 12.5337 12.1647 13.2649L12.875 12.561L13.5853 11.8572C13.2868 11.5559 12.9875 11.0032 12.9853 10.047L11.9854 10.0493ZM12.875 12.561L12.1648 13.265C12.8861 13.9927 13.8462 14.3363 14.7996 14.3066L14.7686 13.3071L14.7375 12.3076C14.3054 12.321 13.8928 12.1674 13.5852 11.857L12.875 12.561ZM14.7686 13.3071L14.8 14.3066C15.7347 14.2772 16.6922 13.8849 17.4141 13.1127C18.1438 12.3323 18.5808 11.2222 18.584 9.84555L17.584 9.84326L16.584 9.84098C16.5818 10.7858 16.2903 11.3863 15.9533 11.7468C15.6085 12.1155 15.1609 12.2943 14.7371 12.3076L14.7686 13.3071ZM17.584 9.84326L17.5801 10.8433L18.0801 10.8452L18.084 9.84521L18.0879 8.84522L17.5879 8.84327L17.584 9.84326ZM18.084 9.84521L18.082 10.8452L18.582 10.8462L18.584 9.84619L18.5859 8.84619L18.0859 8.84522L18.084 9.84521ZM18.584 9.84619L17.584 9.84386C17.5786 12.1661 16.1261 13.264 14.7684 13.3066L14.7998 14.3062L14.8312 15.3057C17.3418 15.2268 19.5762 13.1722 19.584 9.84852L18.584 9.84619ZM14.7998 14.3062L14.7687 13.3066C14.076 13.3282 13.3899 13.0795 12.8753 12.5602L12.165 13.2642L11.4548 13.9681C12.3833 14.905 13.6172 15.3435 14.8309 15.3057L14.7998 14.3062ZM12.165 13.2642L12.8754 12.5603C12.3638 12.044 11.9881 11.2258 11.9853 10.0499L10.9854 10.0522L9.98535 10.0546C9.98914 11.6706 10.517 13.0216 11.4547 13.968L12.165 13.2642ZM10.9854 10.0522L11.9853 10.05C11.9821 8.64571 11.5021 7.54717 10.742 6.80004L10.041 7.51318L9.34 8.22633C9.67741 8.55801 9.98323 9.12431 9.98535 10.0545L10.9854 10.0522ZM10.041 7.51318L10.7419 6.79989C9.9871 6.05827 8.98583 5.69212 7.9934 5.69189L7.99316 6.69189L7.99293 7.69189C8.50115 7.69201 8.98684 7.87933 9.34015 8.22648L10.041 7.51318ZM7.99316 6.69189V5.69189C7.00017 5.69189 5.99925 6.05846 5.24455 6.79979L5.94531 7.51318L6.64607 8.22658C6.99975 7.87916 7.48528 7.69189 7.99316 7.69189V6.69189ZM5.94531 7.51318L5.24445 6.79989C4.48442 7.54667 4.00321 8.64478 4 10.05L5 10.0522L6 10.0545C6.00212 9.12463 6.30828 8.55849 6.64617 8.22648L5.94531 7.51318ZM5 10.0522L5.00391 9.05225L4.50391 9.0503L4.5 10.0503L4.49609 11.0503L4.99609 11.0522L5 10.0522ZM4.5 10.0503L4.50195 9.05029L4.00195 9.04932L4 10.0493L3.99805 11.0493L4.49805 11.0503L4.5 10.0503ZM4 10.0493L5 10.0516C5.00272 8.8842 5.39639 8.05276 5.94508 7.51351L5.24414 6.80029L4.5432 6.08707C3.57207 7.04149 3.00383 8.40504 3 10.047L4 10.0493ZM5.24414 6.80029L5.94494 7.51365C6.49916 6.96918 7.2427 6.69189 7.99316 6.69189V5.69189V4.69189C6.75794 4.69189 5.49883 5.14826 4.54334 6.08694L5.24414 6.80029Z" fill="#964B00" mask="url(#path-1-inside-1_29172_115215)"/>
</svg>
