<svg width="44" height="20" viewBox="0 0 44 20" fill="none" xmlns="http://www.w3.org/2000/svg">
<mask id="path-1-inside-1_29172_115273" fill="white">
<path fill-rule="evenodd" clip-rule="evenodd" d="M12.1478 14.96L13.0984 13.8027L10.4986 10.6202H39.3392V9.62019H10.3023L13.0984 6.19737L12.1478 5.04004L8.07391 10L12.1478 14.96ZM8.07391 14.96L9.02449 13.8027L5.91813 10L9.02449 6.19737L8.07391 5.04004L4 10L8.07391 14.96Z"/>
</mask>
<path d="M13.0984 13.8027L13.8712 14.4374L14.3911 13.8044L13.8729 13.1701L13.0984 13.8027ZM12.1478 14.96L11.3751 15.5947L12.1478 16.5356L12.9206 15.5947L12.1478 14.96ZM10.4986 10.6202V9.62019H8.39051L9.72419 11.2528L10.4986 10.6202ZM39.3392 10.6202V11.6202H40.3392V10.6202H39.3392ZM39.3392 9.62019H40.3392V8.62019H39.3392V9.62019ZM10.3023 9.62019L9.52789 8.98755L8.19421 10.6202H10.3023V9.62019ZM13.0984 6.19737L13.8729 6.83001L14.3911 6.19565L13.8712 5.56267L13.0984 6.19737ZM12.1478 5.04004L12.9206 4.40533L12.1478 3.4645L11.3751 4.40533L12.1478 5.04004ZM8.07391 10L7.30116 9.36533L6.77984 10L7.30116 10.6347L8.07391 10ZM9.02449 13.8027L9.79725 14.4374L10.3171 13.8044L9.79894 13.1701L9.02449 13.8027ZM8.07391 14.96L7.30116 15.5947L8.07391 16.5356L8.84667 15.5947L8.07391 14.96ZM5.91813 10L5.14369 9.3674L4.62689 10L5.14369 10.6327L5.91813 10ZM9.02449 6.19737L9.79894 6.83001L10.3171 6.19565L9.79725 5.56267L9.02449 6.19737ZM8.07391 5.04004L8.84667 4.40533L8.07391 3.4645L7.30116 4.40533L8.07391 5.04004ZM4 10L3.22725 9.36533L2.70593 10L3.22725 10.6347L4 10ZM13.0984 13.8027L12.3256 13.168L11.3751 14.3253L12.1478 14.96L12.9206 15.5947L13.8712 14.4374L13.0984 13.8027ZM10.4986 10.6202L9.72419 11.2528L12.324 14.4353L13.0984 13.8027L13.8729 13.1701L11.2731 9.98755L10.4986 10.6202ZM39.3392 10.6202V9.62019H10.4986V10.6202V11.6202H39.3392V10.6202ZM39.3392 9.62019H38.3392V10.6202H39.3392H40.3392V9.62019H39.3392ZM10.3023 9.62019V10.6202H39.3392V9.62019V8.62019H10.3023V9.62019ZM13.0984 6.19737L12.324 5.56473L9.52789 8.98755L10.3023 9.62019L11.0768 10.2528L13.8729 6.83001L13.0984 6.19737ZM12.1478 5.04004L11.3751 5.67474L12.3256 6.83208L13.0984 6.19737L13.8712 5.56267L12.9206 4.40533L12.1478 5.04004ZM8.07391 10L8.84667 10.6347L12.9206 5.67474L12.1478 5.04004L11.3751 4.40533L7.30116 9.36533L8.07391 10ZM12.1478 14.96L12.9206 14.3253L8.84667 9.36533L8.07391 10L7.30116 10.6347L11.3751 15.5947L12.1478 14.96ZM9.02449 13.8027L8.25174 13.168L7.30116 14.3253L8.07391 14.96L8.84667 15.5947L9.79725 14.4374L9.02449 13.8027ZM5.91813 10L5.14369 10.6327L8.25004 14.4353L9.02449 13.8027L9.79894 13.1701L6.69258 9.3674L5.91813 10ZM9.02449 6.19737L8.25004 5.56473L5.14369 9.3674L5.91813 10L6.69258 10.6327L9.79894 6.83001L9.02449 6.19737ZM8.07391 5.04004L7.30116 5.67474L8.25174 6.83208L9.02449 6.19737L9.79725 5.56267L8.84667 4.40533L8.07391 5.04004ZM4 10L4.77275 10.6347L8.84667 5.67474L8.07391 5.04004L7.30116 4.40533L3.22725 9.36533L4 10ZM8.07391 14.96L8.84667 14.3253L4.77275 9.36533L4 10L3.22725 10.6347L7.30116 15.5947L8.07391 14.96Z" fill="#964B00" mask="url(#path-1-inside-1_29172_115273)"/>
</svg>
