<svg width="24" height="20" viewBox="0 0 24 20" fill="none" xmlns="http://www.w3.org/2000/svg">
<rect x="4.5" y="2.5" width="15" height="15" stroke="#964B00"/>
<line y1="-0.5" x2="21.7223" y2="-0.5" transform="matrix(0.707093 -0.707121 0.707093 0.707121 4.64062 18)" stroke="#964B00"/>
<line x1="6.55859" y1="5.33984" x2="12.3186" y2="5.33984" stroke="#964B00"/>
<line x1="6.55859" y1="6.62012" x2="9.11859" y2="6.62012" stroke="#964B00"/>
<line x1="9.76172" y1="6.62012" x2="12.3217" y2="6.62012" stroke="#964B00"/>
<mask id="path-6-inside-1_29172_115293" fill="white">
<path d="M12.7812 13.793C12.7872 11.4818 16.2275 11.4818 16.2334 13.793C16.2341 14.0802 16.3318 14.2463 16.4355 14.3418C16.5464 14.4437 16.7046 14.501 16.8779 14.4961C17.209 14.4864 17.5483 14.2574 17.5498 13.7275L18.5498 13.7295C18.547 14.8453 17.7309 15.4724 16.9062 15.4961C16.5018 15.5076 16.0819 15.3752 15.7588 15.0781C15.4286 14.7744 15.2348 14.3317 15.2334 13.7959C15.2309 12.8145 13.7837 12.8145 13.7812 13.7959L13.2812 13.7939L12.7812 13.793Z"/>
</mask>
<path d="M12.7812 13.793C12.7872 11.4818 16.2275 11.4818 16.2334 13.793C16.2341 14.0802 16.3318 14.2463 16.4355 14.3418C16.5464 14.4437 16.7046 14.501 16.8779 14.4961C17.209 14.4864 17.5483 14.2574 17.5498 13.7275L18.5498 13.7295C18.547 14.8453 17.7309 15.4724 16.9062 15.4961C16.5018 15.5076 16.0819 15.3752 15.7588 15.0781C15.4286 14.7744 15.2348 14.3317 15.2334 13.7959C15.2309 12.8145 13.7837 12.8145 13.7812 13.7959L13.2812 13.7939L12.7812 13.793Z" fill="#964B00"/>
<path d="M12.7812 13.793L11.7813 13.7904L11.7787 14.791L12.7793 14.793L12.7812 13.793ZM16.2334 13.793L17.2334 13.7905V13.7904L16.2334 13.793ZM16.4355 14.3418L15.7584 15.0777L15.7588 15.0781L16.4355 14.3418ZM16.8779 14.4961L16.9064 15.4957L16.9072 15.4957L16.8779 14.4961ZM17.5498 13.7275L17.5518 12.7275L16.5526 12.7256L16.5498 13.7248L17.5498 13.7275ZM18.5498 13.7295L19.5498 13.732L19.5523 12.7314L18.5518 12.7295L18.5498 13.7295ZM16.9062 15.4961L16.9347 16.4957L16.935 16.4957L16.9062 15.4961ZM15.7588 15.0781L15.0818 15.8141L15.082 15.8143L15.7588 15.0781ZM15.2334 13.7959L14.2334 13.7984L14.2334 13.7985L15.2334 13.7959ZM13.7812 13.7959L13.7773 14.7959L14.7787 14.7998L14.7812 13.7984L13.7812 13.7959ZM13.2812 13.7939L13.2852 12.794L13.2832 12.7939L13.2812 13.7939ZM12.7812 13.793L13.7812 13.7955C13.782 13.4864 13.8879 13.3286 13.9885 13.2387C14.1068 13.133 14.2914 13.0596 14.5073 13.0596C14.7233 13.0596 14.9078 13.133 15.0262 13.2387C15.1268 13.3286 15.2326 13.4864 15.2334 13.7955L16.2334 13.793L17.2334 13.7904C17.224 10.1494 11.7906 10.1492 11.7813 13.7904L12.7812 13.793ZM16.2334 13.793L15.2334 13.7955C15.2348 14.3353 15.431 14.7764 15.7584 15.0777L16.4355 14.3418L17.1127 13.6059C17.1615 13.6509 17.1972 13.703 17.218 13.7526C17.238 13.8003 17.2335 13.8199 17.2334 13.7905L16.2334 13.793ZM16.4355 14.3418L15.7588 15.0781C16.0807 15.3739 16.5001 15.5073 16.9064 15.4957L16.8779 14.4961L16.8494 13.4965C16.9092 13.4948 17.0121 13.5135 17.1123 13.6055L16.4355 14.3418ZM16.8779 14.4961L16.9072 15.4957C17.2867 15.4846 17.7076 15.3464 18.0397 15.0188C18.3841 14.6791 18.5484 14.2196 18.5498 13.7303L17.5498 13.7275L16.5498 13.7248C16.5497 13.7503 16.5458 13.7407 16.5581 13.709C16.571 13.6757 16.5956 13.634 16.6352 13.595C16.7145 13.5168 16.8002 13.4979 16.8487 13.4965L16.8779 14.4961ZM17.5498 13.7275L17.5479 14.7275L18.5479 14.7295L18.5498 13.7295L18.5518 12.7295L17.5518 12.7275L17.5498 13.7275ZM18.5498 13.7295L17.5498 13.727C17.5491 14.0259 17.4463 14.201 17.3388 14.3057C17.2194 14.4218 17.0515 14.4915 16.8775 14.4965L16.9062 15.4961L16.935 16.4957C18.2493 16.4579 19.5455 15.4368 19.5498 13.732L18.5498 13.7295ZM16.9062 15.4961L16.8778 14.4965C16.7047 14.5014 16.5465 14.4439 16.4355 14.3419L15.7588 15.0781L15.082 15.8143C15.6173 16.3064 16.2988 16.5138 16.9347 16.4957L16.9062 15.4961ZM15.7588 15.0781L16.4358 14.3421C16.3316 14.2463 16.2341 14.0798 16.2334 13.7933L15.2334 13.7959L14.2334 13.7985C14.2355 14.5835 14.5256 15.3025 15.0818 15.8141L15.7588 15.0781ZM15.2334 13.7959L16.2334 13.7934C16.2276 11.4819 12.787 11.4821 12.7813 13.7934L13.7812 13.7959L14.7812 13.7984C14.7812 13.8004 14.7804 13.8286 14.762 13.871C14.7436 13.9136 14.7145 13.954 14.6785 13.9866C14.6097 14.0485 14.5435 14.0598 14.5073 14.0598C14.4712 14.0598 14.4049 14.0485 14.3362 13.9866C14.3001 13.954 14.2711 13.9136 14.2526 13.871C14.2343 13.8286 14.2334 13.8004 14.2334 13.7984L15.2334 13.7959ZM13.7812 13.7959L13.7852 12.7959L13.2852 12.794L13.2812 13.7939L13.2773 14.7939L13.7773 14.7959L13.7812 13.7959ZM13.2812 13.7939L13.2832 12.7939L12.7832 12.793L12.7812 13.793L12.7793 14.793L13.2793 14.7939L13.2812 13.7939Z" fill="#964B00" mask="url(#path-6-inside-1_29172_115293)"/>
</svg>
