<svg width="24" height="20" viewBox="0 0 24 20" fill="none" xmlns="http://www.w3.org/2000/svg">
<rect x="4.5" y="2.5" width="14.9997" height="15" stroke="#964B00"/>
<line y1="-0.5" x2="21.7221" y2="-0.5" transform="matrix(0.707086 -0.707128 0.707086 0.707128 4.64062 18)" stroke="#964B00"/>
<line x1="12.3203" y1="13.02" x2="18.0802" y2="13.02" stroke="#964B00"/>
<line x1="12.3203" y1="14.3" x2="14.8803" y2="14.3" stroke="#964B00"/>
<line x1="15.5195" y1="14.3" x2="18.0795" y2="14.3" stroke="#964B00"/>
<mask id="path-6-inside-1_29172_115282" fill="white">
<path d="M6.38281 6.11352C6.38876 3.80233 9.82902 3.80233 9.83496 6.11352C9.83572 6.40059 9.93339 6.56689 10.0371 6.66235C10.1479 6.76425 10.3063 6.82151 10.4795 6.81665C10.8105 6.80705 11.1498 6.57794 11.1514 6.0481L12.1514 6.05005C12.1485 7.16582 11.3325 7.79305 10.5078 7.81665C10.1033 7.8281 9.68247 7.69588 9.35938 7.39868C9.02944 7.095 8.83642 6.65195 8.83496 6.11645C8.8325 5.13505 7.38527 5.13505 7.38281 6.11645L6.88281 6.1145L6.38281 6.11352Z"/>
</mask>
<path d="M6.38281 6.11352C6.38876 3.80233 9.82902 3.80233 9.83496 6.11352C9.83572 6.40059 9.93339 6.56689 10.0371 6.66235C10.1479 6.76425 10.3063 6.82151 10.4795 6.81665C10.8105 6.80705 11.1498 6.57794 11.1514 6.0481L12.1514 6.05005C12.1485 7.16582 11.3325 7.79305 10.5078 7.81665C10.1033 7.8281 9.68247 7.69588 9.35938 7.39868C9.02944 7.095 8.83642 6.65195 8.83496 6.11645C8.8325 5.13505 7.38527 5.13505 7.38281 6.11645L6.88281 6.1145L6.38281 6.11352Z" fill="#964B00"/>
<path d="M6.38281 6.11352L5.38282 6.11095L5.38024 7.11157L6.38086 7.11352L6.38281 6.11352ZM9.83496 6.11352L8.83496 6.1161L8.83496 6.11619L9.83496 6.11352ZM10.0371 6.66235L9.35988 7.39812L9.36011 7.39834L10.0371 6.66235ZM10.4795 6.81665L10.5075 7.81626L10.5085 7.81623L10.4795 6.81665ZM11.1514 6.0481L11.1533 5.0481L10.1543 5.04615L10.1514 6.04516L11.1514 6.0481ZM12.1514 6.05005L13.1514 6.05264L13.154 5.052L12.1533 5.05005L12.1514 6.05005ZM10.5078 7.81665L10.5361 8.81625L10.5364 8.81624L10.5078 7.81665ZM9.35938 7.39868L8.68215 8.13446L8.68238 8.13467L9.35938 7.39868ZM8.83496 6.11645L7.83496 6.11896L7.83496 6.11917L8.83496 6.11645ZM7.38281 6.11645L7.37891 7.11645L8.3803 7.12036L8.38281 6.11896L7.38281 6.11645ZM6.88281 6.1145L6.88672 5.11451L6.88477 5.1145L6.88281 6.1145ZM6.38281 6.11352L7.38281 6.1161C7.3836 5.80696 7.48943 5.64915 7.59003 5.5593C7.70838 5.45359 7.89292 5.38013 8.10889 5.38013C8.32485 5.38013 8.50939 5.45359 8.62774 5.5593C8.72834 5.64915 8.83417 5.80696 8.83496 6.1161L9.83496 6.11352L10.835 6.11095C10.8256 2.46998 5.39218 2.46972 5.38282 6.11095L6.38281 6.11352ZM9.83496 6.11352L8.83496 6.11619C8.8364 6.65558 9.03252 7.09681 9.35988 7.39812L10.0371 6.66235L10.7143 5.92658C10.7634 5.9717 10.799 6.02383 10.8197 6.07314C10.8396 6.12066 10.835 6.14018 10.835 6.11086L9.83496 6.11352ZM10.0371 6.66235L9.36011 7.39834C9.68247 7.69486 10.1022 7.82762 10.5075 7.81626L10.4795 6.81665L10.4515 5.81704C10.5103 5.81539 10.6133 5.83363 10.7141 5.92637L10.0371 6.66235ZM10.4795 6.81665L10.5085 7.81623C10.8882 7.80521 11.3093 7.66694 11.6413 7.3393C11.9856 6.99964 12.1499 6.54016 12.1514 6.05103L11.1514 6.0481L10.1514 6.04516C10.1513 6.07074 10.1474 6.06119 10.1597 6.0295C10.1725 5.99635 10.1971 5.95465 10.2366 5.91562C10.3159 5.8374 10.4018 5.81848 10.4505 5.81707L10.4795 6.81665ZM11.1514 6.0481L11.1494 7.04809L12.1494 7.05005L12.1514 6.05005L12.1533 5.05005L11.1533 5.0481L11.1514 6.0481ZM12.1514 6.05005L11.1514 6.04745C11.1506 6.34642 11.0478 6.52162 10.9403 6.6263C10.8209 6.74246 10.6531 6.81208 10.4792 6.81706L10.5078 7.81665L10.5364 8.81624C11.851 8.77862 13.1469 7.75717 13.1514 6.05264L12.1514 6.05005ZM10.5078 7.81665L10.4795 6.81705C10.3053 6.82198 10.1466 6.76405 10.0364 6.66269L9.35938 7.39868L8.68238 8.13467C9.21838 8.62771 9.90129 8.83422 10.5361 8.81625L10.5078 7.81665ZM9.35938 7.39868L10.0366 6.66291C9.93331 6.56783 9.83574 6.40138 9.83496 6.11374L8.83496 6.11645L7.83496 6.11917C7.83709 6.90252 8.12558 7.62218 8.68215 8.13446L9.35938 7.39868ZM8.83496 6.11645L9.83496 6.11395C9.82916 3.80255 6.38861 3.80255 6.38282 6.11395L7.38281 6.11645L8.38281 6.11896C8.3828 6.12091 8.38193 6.14914 8.36358 6.19156C8.34513 6.23418 8.3161 6.27459 8.28003 6.30711C8.21128 6.36909 8.14506 6.3804 8.10889 6.3804C8.07271 6.3804 8.00649 6.36909 7.93774 6.30711C7.90167 6.27459 7.87264 6.23418 7.8542 6.19156C7.83584 6.14914 7.83497 6.12091 7.83496 6.11896L8.83496 6.11645ZM7.38281 6.11645L7.38672 5.11646L6.88672 5.11451L6.88281 6.1145L6.87891 7.11449L7.37891 7.11645L7.38281 6.11645ZM6.88281 6.1145L6.88477 5.1145L6.38477 5.11353L6.38281 6.11352L6.38086 7.11352L6.88086 7.1145L6.88281 6.1145Z" fill="#964B00" mask="url(#path-6-inside-1_29172_115282)"/>
</svg>
