<svg width="31" height="20" viewBox="0 0 31 20" fill="none" xmlns="http://www.w3.org/2000/svg">
<mask id="path-1-inside-1_29172_115211" fill="white">
<path d="M24.5713 9.68579H27V10.6858H24.5713V13.429H7.42871V10.6858H4V9.68579H7.42871V6.57153H24.5713V9.68579ZM8.42871 10.6858V12.429H23.5713V10.6858H8.42871ZM8.42871 9.68579H23.5713V7.57153H8.42871V9.68579Z"/>
</mask>
<path d="M24.5713 9.68579H27V10.6858H24.5713V13.429H7.42871V10.6858H4V9.68579H7.42871V6.57153H24.5713V9.68579ZM8.42871 10.6858V12.429H23.5713V10.6858H8.42871ZM8.42871 9.68579H23.5713V7.57153H8.42871V9.68579Z" fill="#964B00"/>
<path d="M24.5713 9.68579H21.5713V12.6858H24.5713V9.68579ZM27 9.68579H30V6.68579H27V9.68579ZM27 10.6858V13.6858H30V10.6858H27ZM24.5713 10.6858V7.68579H21.5713V10.6858H24.5713ZM24.5713 13.429V16.429H27.5713V13.429H24.5713ZM7.42871 13.429H4.42871V16.429H7.42871V13.429ZM7.42871 10.6858H10.4287V7.68579H7.42871V10.6858ZM4 10.6858H1V13.6858H4V10.6858ZM4 9.68579V6.68579H1V9.68579H4ZM7.42871 9.68579V12.6858H10.4287V9.68579H7.42871ZM7.42871 6.57153V3.57153H4.42871V6.57153H7.42871ZM24.5713 6.57153H27.5713V3.57153H24.5713V6.57153ZM8.42871 10.6858V7.68579H5.42871V10.6858H8.42871ZM8.42871 12.429H5.42871V15.429H8.42871V12.429ZM23.5713 12.429V15.429H26.5713V12.429H23.5713ZM23.5713 10.6858H26.5713V7.68579H23.5713V10.6858ZM8.42871 9.68579H5.42871V12.6858H8.42871V9.68579ZM23.5713 9.68579V12.6858H26.5713V9.68579H23.5713ZM23.5713 7.57153H26.5713V4.57153H23.5713V7.57153ZM8.42871 7.57153V4.57153H5.42871V7.57153H8.42871ZM24.5713 9.68579V12.6858H27V9.68579V6.68579H24.5713V9.68579ZM27 9.68579H24V10.6858H27H30V9.68579H27ZM27 10.6858V7.68579H24.5713V10.6858V13.6858H27V10.6858ZM24.5713 10.6858H21.5713V13.429H24.5713H27.5713V10.6858H24.5713ZM24.5713 13.429V10.429H7.42871V13.429V16.429H24.5713V13.429ZM7.42871 13.429H10.4287V10.6858H7.42871H4.42871V13.429H7.42871ZM7.42871 10.6858V7.68579H4V10.6858V13.6858H7.42871V10.6858ZM4 10.6858H7V9.68579H4H1V10.6858H4ZM4 9.68579V12.6858H7.42871V9.68579V6.68579H4V9.68579ZM7.42871 9.68579H10.4287V6.57153H7.42871H4.42871V9.68579H7.42871ZM7.42871 6.57153V9.57153H24.5713V6.57153V3.57153H7.42871V6.57153ZM24.5713 6.57153H21.5713V9.68579H24.5713H27.5713V6.57153H24.5713ZM8.42871 10.6858H5.42871V12.429H8.42871H11.4287V10.6858H8.42871ZM8.42871 12.429V15.429H23.5713V12.429V9.42896H8.42871V12.429ZM23.5713 12.429H26.5713V10.6858H23.5713H20.5713V12.429H23.5713ZM23.5713 10.6858V7.68579H8.42871V10.6858V13.6858H23.5713V10.6858ZM8.42871 9.68579V12.6858H23.5713V9.68579V6.68579H8.42871V9.68579ZM23.5713 9.68579H26.5713V7.57153H23.5713H20.5713V9.68579H23.5713ZM23.5713 7.57153V4.57153H8.42871V7.57153V10.5715H23.5713V7.57153ZM8.42871 7.57153H5.42871V9.68579H8.42871H11.4287V7.57153H8.42871Z" fill="#964B00" mask="url(#path-1-inside-1_29172_115211)"/>
</svg>
