<svg width="31" height="20" viewBox="0 0 31 20" fill="none" xmlns="http://www.w3.org/2000/svg">
<line x1="4" y1="16.5" x2="26.7273" y2="16.5" stroke="#964B00" stroke-width="3"/>
<line x1="11.8398" y1="10.0007" x2="18.658" y2="10.0007" stroke="#964B00" stroke-dasharray="2 2"/>
<path d="M15.4783 8.59082L17.0529 11.0454H13.9037L15.4783 8.59082Z" fill="#964B00"/>
<rect x="7.50071" y="8.99949" width="3" height="2.45455" fill="#964B00" stroke="#964B00" stroke-width="2.45455"/>
<path d="M7.60784 6.95446L7.18359 6.65527L9.00178 5.37305L10.82 6.65527L10.3957 6.95446L9.00178 5.97676L7.60784 6.95446ZM7.60784 5.67223L7.18359 5.37305L9.00178 4.09082L10.82 5.37305L10.3957 5.67223L9.00178 4.69453L7.60784 5.67223Z" fill="#964B00"/>
<path d="M10.3922 13.9086L10.8164 14.2078L8.99822 15.49L7.18004 14.2078L7.60429 13.9086L8.99822 14.8863L10.3922 13.9086ZM10.3922 15.1908L10.8164 15.49L8.99822 16.7722L7.18004 15.49L7.60429 15.1908L8.99822 16.1685L10.3922 15.1908Z" fill="#964B00"/>
<line x1="8.86328" y1="15.4797" x2="8.86328" y2="5.66155" stroke="#964B00" stroke-width="0.5"/>
<line x1="8.86328" y1="4.5" x2="8.86328" y2="2.45455" stroke="#964B00" stroke-width="0.5"/>
<path d="M9.00178 0L10.5764 2.45455H7.42718L9.00178 0Z" fill="#964B00"/>
<rect x="19.7741" y="8.99949" width="3" height="2.45455" fill="#964B00" stroke="#964B00" stroke-width="2.45455"/>
<path d="M19.8774 6.95446L19.4531 6.65527L21.2713 5.37305L23.0895 6.65527L22.6652 6.95446L21.2713 5.97676L19.8774 6.95446ZM19.8774 5.67223L19.4531 5.37305L21.2713 4.09082L23.0895 5.37305L22.6652 5.67223L21.2713 4.69453L19.8774 5.67223Z" fill="#964B00"/>
<path d="M22.6656 13.9086L23.0898 14.2078L21.2717 15.49L19.4535 14.2078L19.8777 13.9086L21.2717 14.8863L22.6656 13.9086ZM22.6656 15.1908L23.0898 15.49L21.2717 16.7722L19.4535 15.49L19.8777 15.1908L21.2717 16.1685L22.6656 15.1908Z" fill="#964B00"/>
<line x1="21.1367" y1="15.4797" x2="21.1367" y2="5.66155" stroke="#964B00" stroke-width="0.5"/>
<line x1="21.1367" y1="4.5" x2="21.1367" y2="2.45455" stroke="#964B00" stroke-width="0.5"/>
<path d="M21.2713 0L22.8459 2.45455H19.6967L21.2713 0Z" fill="#964B00"/>
</svg>
