<svg width="31" height="20" viewBox="0 0 31 20" fill="none" xmlns="http://www.w3.org/2000/svg">
<line x1="5.13672" y1="16.5" x2="25.5913" y2="16.5" stroke="#964B00" stroke-width="3"/>
<line x1="12.1953" y1="10.001" x2="18.3317" y2="10.001" stroke="#964B00" stroke-dasharray="2 2"/>
<path d="M15.4645 8.59082L16.8816 11.0454H14.0474L15.4645 8.59082Z" fill="#964B00"/>
<path d="M8.38182 6.95446L8 6.65527L9.63636 5.37305L11.2727 6.65527L10.8909 6.95446L9.63636 5.97676L8.38182 6.95446ZM8.38182 5.67223L8 5.37305L9.63636 4.09082L11.2727 5.37305L10.8909 5.67223L9.63636 4.69453L8.38182 5.67223Z" fill="#964B00"/>
<path d="M10.8916 13.9091L11.2734 14.2083L9.63707 15.4905L8.00071 14.2083L8.38253 13.9091L9.63707 14.8868L10.8916 13.9091ZM10.8916 15.1913L11.2734 15.4905L9.63707 16.7727L8.00071 15.4905L8.38253 15.1913L9.63707 16.169L10.8916 15.1913Z" fill="#964B00"/>
<line x1="9.48828" y1="15.4792" x2="9.48828" y2="5.66107" stroke="#964B00" stroke-width="0.5"/>
<line x1="9.48828" y1="4.5" x2="9.48828" y2="2.45455" stroke="#964B00" stroke-width="0.5"/>
<path d="M9.63636 0L11.0535 2.45455H8.21923L9.63636 0Z" fill="#964B00"/>
<line x1="9.38672" y1="13.384" x2="9.38672" y2="7.41224" stroke="#964B00" stroke-width="0.5"/>
<rect x="7.68359" y="13" width="5.13632" height="3.90909" transform="rotate(-90 7.68359 13)" stroke="#964B00"/>
<ellipse cx="9.63849" cy="11.7852" rx="0.533196" ry="0.818182" transform="rotate(-90 9.63849 11.7852)" fill="#964B00"/>
<ellipse cx="9.63849" cy="9.03394" rx="0.533196" ry="0.818182" transform="rotate(-90 9.63849 9.03394)" fill="#964B00"/>
<path d="M19.4287 6.95446L19.0469 6.65527L20.6832 5.37305L22.3196 6.65527L21.9378 6.95446L20.6832 5.97676L19.4287 6.95446ZM19.4287 5.67223L19.0469 5.37305L20.6832 4.09082L22.3196 5.37305L21.9378 5.67223L20.6832 4.69453L19.4287 5.67223Z" fill="#964B00"/>
<path d="M21.9385 13.9091L22.3203 14.2083L20.6839 15.4905L19.0476 14.2083L19.4294 13.9091L20.6839 14.8868L21.9385 13.9091ZM21.9385 15.1913L22.3203 15.4905L20.6839 16.7727L19.0476 15.4905L19.4294 15.1913L20.6839 16.169L21.9385 15.1913Z" fill="#964B00"/>
<line x1="20.5352" y1="15.4792" x2="20.5352" y2="5.66107" stroke="#964B00" stroke-width="0.5"/>
<line x1="20.5352" y1="4.5" x2="20.5352" y2="2.45455" stroke="#964B00" stroke-width="0.5"/>
<path d="M20.6832 0L22.1004 2.45455H19.2661L20.6832 0Z" fill="#964B00"/>
<line x1="20.4336" y1="13.384" x2="20.4336" y2="7.41224" stroke="#964B00" stroke-width="0.5"/>
<rect x="18.7266" y="13" width="5.13632" height="3.90909" transform="rotate(-90 18.7266 13)" stroke="#964B00"/>
<ellipse cx="20.6815" cy="11.7852" rx="0.533196" ry="0.818182" transform="rotate(-90 20.6815 11.7852)" fill="#964B00"/>
<ellipse cx="20.6815" cy="9.03394" rx="0.533196" ry="0.818182" transform="rotate(-90 20.6815 9.03394)" fill="#964B00"/>
</svg>
