<svg width="27" height="20" viewBox="0 0 27 20" fill="none" xmlns="http://www.w3.org/2000/svg">
<line x1="14.5586" y1="9.82007" x2="22.5586" y2="9.82007" stroke="#FF0000"/>
<line x1="14.0586" y1="18" x2="14.0586" y2="2" stroke="#FF0000"/>
<line x1="12.1406" y1="15.1201" x2="12.1406" y2="5.52012" stroke="#FF0000"/>
<line x1="4" y1="9.82007" x2="12" y2="9.82007" stroke="#FF0000"/>
<circle cx="16.9608" cy="7.28012" r="0.16" fill="#FF0000"/>
<circle cx="16.9608" cy="17.8399" r="0.16" fill="#FF0000"/>
<circle cx="4.16" cy="17.8399" r="0.16" fill="#FF0000"/>
<circle cx="4.16" cy="7.28012" r="0.16" fill="#FF0000"/>
<circle cx="16.9608" cy="2.16" r="0.16" fill="#FF0000"/>
<circle cx="16.9608" cy="12.7201" r="0.16" fill="#FF0000"/>
<circle cx="4.16" cy="12.7201" r="0.16" fill="#FF0000"/>
<circle cx="4.16" cy="2.16" r="0.16" fill="#FF0000"/>
<circle cx="22.0819" cy="7.28012" r="0.16" fill="#FF0000"/>
<circle cx="22.0819" cy="17.8399" r="0.16" fill="#FF0000"/>
<circle cx="9.28109" cy="17.8399" r="0.16" fill="#FF0000"/>
<circle cx="9.28109" cy="7.28012" r="0.16" fill="#FF0000"/>
<circle cx="22.0819" cy="2.16" r="0.16" fill="#FF0000"/>
<circle cx="22.0819" cy="12.7201" r="0.16" fill="#FF0000"/>
<circle cx="9.28109" cy="12.7201" r="0.16" fill="#FF0000"/>
<circle cx="9.28109" cy="2.16" r="0.16" fill="#FF0000"/>
</svg>
