<svg width="17" height="20" viewBox="0 0 17 20" fill="none" xmlns="http://www.w3.org/2000/svg">
<path d="M8.30273 4.2063C10.435 4.2063 12.1064 5.8159 12.1064 7.73267C12.1064 9.64944 10.435 11.259 8.30273 11.259C6.17067 11.2588 4.5 9.6493 4.5 7.73267C4.50001 5.81604 6.17068 4.20654 8.30273 4.2063Z" stroke="#FFFF00"/>
<path d="M8.30273 8.76929C10.435 8.76929 12.1064 10.3789 12.1064 12.2957C12.1064 14.2124 10.435 15.822 8.30273 15.822C6.17067 15.8218 4.5 14.2123 4.5 12.2957C4.50001 10.379 6.17068 8.76952 8.30273 8.76929Z" stroke="#964B00"/>
<line x1="8.37891" y1="4.10864" x2="8.37891" y2="2.10864" stroke="#FFFF00"/>
<line x1="8.37891" y1="17.8914" x2="8.37891" y2="15.8914" stroke="#964B00"/>
</svg>
