<svg width="22" height="20" viewBox="0 0 22 20" fill="none" xmlns="http://www.w3.org/2000/svg">
<path d="M8.50293 4.44165C10.7452 4.44179 12.5048 6.13483 12.5049 8.15454C12.5049 10.1743 10.7452 11.8673 8.50293 11.8674C6.26049 11.8674 4.5 10.1744 4.5 8.15454C4.50007 6.13475 6.26053 4.44165 8.50293 4.44165Z" stroke="#00FF00"/>
<path d="M13.0029 4.44165C15.2452 4.44179 17.0048 6.13483 17.0049 8.15454C17.0049 10.1743 15.2452 11.8673 13.0029 11.8674C10.7605 11.8674 9 10.1744 9 8.15454C9.00007 6.13475 10.7605 4.44165 13.0029 4.44165Z" stroke="#00FF00"/>
<path d="M10.6045 8.01489C12.8468 8.01503 14.6064 9.70807 14.6064 11.7278C14.6064 13.7475 12.8468 15.4405 10.6045 15.4407C8.36205 15.4407 6.60156 13.7476 6.60156 11.7278C6.60163 9.70799 8.3621 8.01489 10.6045 8.01489Z" stroke="#00FF00"/>
<line x1="8.28906" y1="4.04956" x2="8.28906" y2="1.9806" stroke="#00FF00"/>
<line x1="13.2891" y1="4.06909" x2="13.2891" y2="2.00013" stroke="#00FF00"/>
<line x1="10.5" y1="18.0193" x2="10.5" y2="15.9503" stroke="#00FF00"/>
</svg>
