<svg width="32" height="20" viewBox="0 0 32 20" fill="none" xmlns="http://www.w3.org/2000/svg">
<mask id="path-1-inside-1_29172_60539" fill="white">
<path fill-rule="evenodd" clip-rule="evenodd" d="M22 4H10V9.5H4V10.5H10V16H22V10.5H28V9.5H22V4Z"/>
</mask>
<path fill-rule="evenodd" clip-rule="evenodd" d="M22 4H10V9.5H4V10.5H10V16H22V10.5H28V9.5H22V4Z" fill="#964B00"/>
<path d="M10 4V3H9V4H10ZM22 4H23V3H22V4ZM10 9.5V10.5H11V9.5H10ZM4 9.5V8.5H3V9.5H4ZM4 10.5H3V11.5H4V10.5ZM10 10.5H11V9.5H10V10.5ZM10 16H9V17H10V16ZM22 16V17H23V16H22ZM22 10.5V9.5H21V10.5H22ZM28 10.5V11.5H29V10.5H28ZM28 9.5H29V8.5H28V9.5ZM22 9.5H21V10.5H22V9.5ZM10 5H22V3H10V5ZM11 9.5V4H9V9.5H11ZM4 10.5H10V8.5H4V10.5ZM5 10.5V9.5H3V10.5H5ZM10 9.5H4V11.5H10V9.5ZM11 16V10.5H9V16H11ZM22 15H10V17H22V15ZM21 10.5V16H23V10.5H21ZM28 9.5H22V11.5H28V9.5ZM27 9.5V10.5H29V9.5H27ZM22 10.5H28V8.5H22V10.5ZM21 4V9.5H23V4H21Z" fill="#964B00" mask="url(#path-1-inside-1_29172_60539)"/>
<rect x="9.5" y="3.5" width="13" height="13" stroke="white"/>
</svg>
