<svg width="25" height="20" viewBox="0 0 25 20" fill="none" xmlns="http://www.w3.org/2000/svg">
<path d="M11.8269 7.11312L6.68023 11.181V15.5714C6.68023 15.6851 6.72729 15.7941 6.81105 15.8745C6.89481 15.9548 7.00841 16 7.12687 16L10.255 15.9922C10.3731 15.9917 10.4861 15.9463 10.5694 15.8659C10.6526 15.7856 10.6994 15.6769 10.6994 15.5636V12.9997C10.6994 12.886 10.7464 12.777 10.8302 12.6966C10.914 12.6162 11.0276 12.571 11.146 12.571H12.9326C13.051 12.571 13.1646 12.6162 13.2484 12.6966C13.3321 12.777 13.3792 12.886 13.3792 12.9997V15.5617C13.379 15.6181 13.3904 15.674 13.4128 15.7262C13.4352 15.7783 13.468 15.8257 13.5095 15.8657C13.551 15.9056 13.6003 15.9373 13.6546 15.9589C13.7089 15.9806 13.7671 15.9917 13.8258 15.9917L16.9528 16C17.0713 16 17.1849 15.9548 17.2687 15.8745C17.3524 15.7941 17.3995 15.6851 17.3995 15.5714V11.178L12.254 7.11312C12.1935 7.06632 12.1181 7.0408 12.0404 7.0408C11.9627 7.0408 11.8874 7.06632 11.8269 7.11312ZM19.9565 9.87798L17.6228 8.03197V4.32146C17.6228 4.23621 17.5875 4.15444 17.5247 4.09415C17.4619 4.03387 17.3767 4 17.2878 4H15.7246C15.6358 4 15.5506 4.03387 15.4877 4.09415C15.4249 4.15444 15.3896 4.23621 15.3896 4.32146V6.26659L12.8904 4.29334C12.6506 4.10393 12.3496 4.00038 12.039 4.00038C11.7284 4.00038 11.4275 4.10393 11.1876 4.29334L4.12157 9.87798C4.08765 9.90488 4.05959 9.93794 4.03898 9.97525C4.01838 10.0126 4.00564 10.0534 4.00149 10.0955C3.99734 10.1375 4.00187 10.1799 4.01481 10.2203C4.02775 10.2606 4.04885 10.2982 4.0769 10.3307L4.78873 11.1612C4.81671 11.1938 4.85112 11.2208 4.89 11.2407C4.92888 11.2606 4.97147 11.2729 5.01531 11.2769C5.05916 11.281 5.10341 11.2767 5.14552 11.2643C5.18764 11.252 5.22681 11.2317 5.26077 11.2048L11.8269 6.01478C11.8874 5.96799 11.9627 5.94247 12.0404 5.94247C12.1181 5.94247 12.1935 5.96799 12.254 6.01478L18.8203 11.2048C18.8542 11.2317 18.8933 11.252 18.9354 11.2644C18.9775 11.2768 19.0217 11.2812 19.0655 11.2772C19.1093 11.2732 19.1518 11.261 19.1907 11.2412C19.2296 11.2214 19.2641 11.1945 19.2921 11.162L20.0039 10.3315C20.0319 10.2988 20.053 10.2611 20.0658 10.2205C20.0785 10.18 20.0828 10.1374 20.0784 10.0953C20.074 10.0531 20.061 10.0122 20.0401 9.97495C20.0191 9.93765 19.9907 9.9047 19.9565 9.87798Z" fill="#1C94AD"/>
</svg>
