<svg width="23" height="20" viewBox="0 0 23 20" fill="none" xmlns="http://www.w3.org/2000/svg">
<g clip-path="url(#clip0_29172_115362)">
<path d="M17.3333 11.6666C17.3333 11.6666 15.6666 14.0793 15.6666 14.9999C15.6666 15.9205 16.413 16.6666 17.3333 16.6666C18.2536 16.6666 18.9999 15.9205 18.9999 14.9999C18.9999 14.0793 17.3333 11.6666 17.3333 11.6666ZM17.0893 8.98586L11.6807 3.57726C11.5179 3.4145 11.3046 3.33325 11.0913 3.33325C10.8781 3.33325 10.6648 3.4145 10.5023 3.57726L8.3778 5.70174L6.13353 3.45721C5.97077 3.29445 5.70697 3.29445 5.54447 3.45721L4.9554 4.04627C4.7929 4.20903 4.7929 4.47284 4.9554 4.63534L7.19993 6.87961L4.73223 9.34731C3.75592 10.3234 3.75592 11.9062 4.73223 12.8825L7.78405 15.9343C8.27207 16.4223 8.91191 16.6666 9.5515 16.6666C10.1913 16.6666 10.8309 16.4226 11.3189 15.9343L17.089 10.1642C17.4145 9.83872 17.4145 9.31138 17.0893 8.98586ZM14.0627 10.834H5.71686C5.75228 10.734 5.80983 10.6262 5.91035 10.526L6.2528 10.1835L8.37806 8.05825L9.9041 9.58429C10.2294 9.90955 10.757 9.90955 11.0822 9.58429C11.4075 9.25903 11.4075 8.73143 11.0822 8.40617L9.55619 6.88013L11.0913 5.34497L15.3216 9.57518L14.0627 10.834Z" fill="#FFFF00"/>
</g>
<defs>
<clipPath id="clip0_29172_115362">
<rect width="15" height="15" fill="white" transform="translate(4 2.5)"/>
</clipPath>
</defs>
</svg>
