<svg width="25" height="20" viewBox="0 0 25 20" fill="none" xmlns="http://www.w3.org/2000/svg">
<line x1="4.3125" y1="10.5" x2="20.3125" y2="10.5" stroke="#FF0000"/>
<rect x="4.50391" y="4.5" width="15.4408" height="11" stroke="#FF0000"/>
<mask id="path-3-inside-1_29172_57665" fill="white">
<ellipse cx="8.59654" cy="10" rx="1.42857" ry="2"/>
</mask>
<ellipse cx="8.59654" cy="10" rx="1.42857" ry="2" fill="#FF0000"/>
<path d="M10.0251 10H7.02511C7.02511 9.9991 7.02081 9.87305 7.16549 9.6705C7.30605 9.47371 7.77072 9 8.59654 9V12V15C10.2113 15 11.3903 14.0786 12.0479 13.1579C12.7096 12.2315 13.0251 11.1055 13.0251 10H10.0251ZM8.59654 12V9C9.42236 9 9.88703 9.47371 10.0276 9.6705C10.1723 9.87305 10.168 9.9991 10.168 10H7.16797H4.16797C4.16797 11.1055 4.48347 12.2315 5.14519 13.1579C5.80279 14.0786 6.98174 15 8.59654 15V12ZM7.16797 10H10.168C10.168 10.0009 10.1723 10.127 10.0276 10.3295C9.88703 10.5263 9.42236 11 8.59654 11V8V5C6.98174 5 5.80279 5.92143 5.14519 6.84207C4.48347 7.76848 4.16797 8.89453 4.16797 10H7.16797ZM8.59654 8V11C7.77072 11 7.30605 10.5263 7.16549 10.3295C7.02081 10.127 7.02511 10.0009 7.02511 10H10.0251H13.0251C13.0251 8.89453 12.7096 7.76848 12.0479 6.84207C11.3903 5.92143 10.2113 5 8.59654 5V8Z" fill="#FF0000" mask="url(#path-3-inside-1_29172_57665)"/>
<ellipse cx="15.9676" cy="10" rx="1.42857" ry="2" fill="#FF0000"/>
</svg>
