<svg width="39" height="20" viewBox="0 0 39 20" fill="none" xmlns="http://www.w3.org/2000/svg">
<mask id="path-1-inside-1_29172_57689" fill="white">
<path d="M28.5117 16H27.5117V10.5H22V14H21V13.7695L20.8672 14.041L7 7.24414V14H6V10.5H4V9.5H6V6H7V6.12988L21 12.9922V6H22V9.5H27.5117V4H28.5117V16ZM30.7422 14.7998H29.7422V5.2002H30.7422V14.7998ZM32.541 13.6006H31.541V6.40039H32.541V13.6006ZM34.3418 12.4004H33.3418V7.60059H34.3418V12.4004Z"/>
</mask>
<path d="M28.5117 16V19H31.5117V16H28.5117ZM27.5117 16H24.5117V19H27.5117V16ZM27.5117 10.5H30.5117V7.5H27.5117V10.5ZM22 10.5V7.5H19V10.5H22ZM22 14V17H25V14H22ZM21 14H18V17H21V14ZM21 13.7695H24L18.3052 12.4512L21 13.7695ZM20.8672 14.041L19.5468 16.7348L22.2427 18.0562L23.562 15.3593L20.8672 14.041ZM7 7.24414L8.32035 4.55032L4 2.43274V7.24414H7ZM7 14V17H10V14H7ZM6 14H3V17H6V14ZM6 10.5H9V7.5H6V10.5ZM4 10.5H1V13.5H4V10.5ZM4 9.5V6.5H1V9.5H4ZM6 9.5V12.5H9V9.5H6ZM6 6V3H3V6H6ZM7 6H10V3H7V6ZM7 6.12988H4V8.0004L5.6796 8.82368L7 6.12988ZM21 12.9922L19.6796 15.686L24 17.8037V12.9922H21ZM21 6V3H18V6H21ZM22 6H25V3H22V6ZM22 9.5H19V12.5H22V9.5ZM27.5117 9.5V12.5H30.5117V9.5H27.5117ZM27.5117 4V1H24.5117V4H27.5117ZM28.5117 4H31.5117V1H28.5117V4ZM30.7422 14.7998V17.7998H33.7422V14.7998H30.7422ZM29.7422 14.7998H26.7422V17.7998H29.7422V14.7998ZM29.7422 5.2002V2.2002H26.7422V5.2002H29.7422ZM30.7422 5.2002H33.7422V2.2002H30.7422V5.2002ZM32.541 13.6006V16.6006H35.541V13.6006H32.541ZM31.541 13.6006H28.541V16.6006H31.541V13.6006ZM31.541 6.40039V3.40039H28.541V6.40039H31.541ZM32.541 6.40039H35.541V3.40039H32.541V6.40039ZM34.3418 12.4004V15.4004H37.3418V12.4004H34.3418ZM33.3418 12.4004H30.3418V15.4004H33.3418V12.4004ZM33.3418 7.60059V4.60059H30.3418V7.60059H33.3418ZM34.3418 7.60059H37.3418V4.60059H34.3418V7.60059ZM28.5117 16V13H27.5117V16V19H28.5117V16ZM27.5117 16H30.5117V10.5H27.5117H24.5117V16H27.5117ZM27.5117 10.5V7.5H22V10.5V13.5H27.5117V10.5ZM22 10.5H19V14H22H25V10.5H22ZM22 14V11H21V14V17H22V14ZM21 14H24V13.7695H21H18V14H21ZM21 13.7695L18.3052 12.4512L18.1724 12.7227L20.8672 14.041L23.562 15.3593L23.6948 15.0879L21 13.7695ZM20.8672 14.041L22.1875 11.3472L8.32035 4.55032L7 7.24414L5.67965 9.93796L19.5468 16.7348L20.8672 14.041ZM7 7.24414H4V14H7H10V7.24414H7ZM7 14V11H6V14V17H7V14ZM6 14H9V10.5H6H3V14H6ZM6 10.5V7.5H4V10.5V13.5H6V10.5ZM4 10.5H7V9.5H4H1V10.5H4ZM4 9.5V12.5H6V9.5V6.5H4V9.5ZM6 9.5H9V6H6H3V9.5H6ZM6 6V9H7V6V3H6V6ZM7 6H4V6.12988H7H10V6H7ZM7 6.12988L5.6796 8.82368L19.6796 15.686L21 12.9922L22.3204 10.2984L8.3204 3.43609L7 6.12988ZM21 12.9922H24V6H21H18V12.9922H21ZM21 6V9H22V6V3H21V6ZM22 6H19V9.5H22H25V6H22ZM22 9.5V12.5H27.5117V9.5V6.5H22V9.5ZM27.5117 9.5H30.5117V4H27.5117H24.5117V9.5H27.5117ZM27.5117 4V7H28.5117V4V1H27.5117V4ZM28.5117 4H25.5117V16H28.5117H31.5117V4H28.5117ZM30.7422 14.7998V11.7998H29.7422V14.7998V17.7998H30.7422V14.7998ZM29.7422 14.7998H32.7422V5.2002H29.7422H26.7422V14.7998H29.7422ZM29.7422 5.2002V8.2002H30.7422V5.2002V2.2002H29.7422V5.2002ZM30.7422 5.2002H27.7422V14.7998H30.7422H33.7422V5.2002H30.7422ZM32.541 13.6006V10.6006H31.541V13.6006V16.6006H32.541V13.6006ZM31.541 13.6006H34.541V6.40039H31.541H28.541V13.6006H31.541ZM31.541 6.40039V9.40039H32.541V6.40039V3.40039H31.541V6.40039ZM32.541 6.40039H29.541V13.6006H32.541H35.541V6.40039H32.541ZM34.3418 12.4004V9.40039H33.3418V12.4004V15.4004H34.3418V12.4004ZM33.3418 12.4004H36.3418V7.60059H33.3418H30.3418V12.4004H33.3418ZM33.3418 7.60059V10.6006H34.3418V7.60059V4.60059H33.3418V7.60059ZM34.3418 7.60059H31.3418V12.4004H34.3418H37.3418V7.60059H34.3418Z" fill="#00FF00" mask="url(#path-1-inside-1_29172_57689)"/>
</svg>
