<svg width="25" height="20" viewBox="0 0 25 20" fill="none" xmlns="http://www.w3.org/2000/svg">
<mask id="path-1-inside-1_29172_57661" fill="white">
<path d="M17 9.5H20.9707V10.5H17L12.5 15L8 10.5H4V9.5H8L12.5 5L17 9.5Z"/>
</mask>
<path d="M17 9.5L16.2929 10.2071L16.5858 10.5H17V9.5ZM20.9707 9.5H21.9707V8.5H20.9707V9.5ZM20.9707 10.5V11.5H21.9707V10.5H20.9707ZM17 10.5V9.5H16.5858L16.2929 9.79289L17 10.5ZM12.5 15L11.7929 15.7071L12.5 16.4142L13.2071 15.7071L12.5 15ZM8 10.5L8.70711 9.79289L8.41421 9.5H8V10.5ZM4 10.5H3V11.5H4V10.5ZM4 9.5V8.5H3V9.5H4ZM8 9.5V10.5H8.41421L8.70711 10.2071L8 9.5ZM12.5 5L13.2071 4.29289L12.5 3.58579L11.7929 4.29289L12.5 5ZM17 9.5V10.5H20.9707V9.5V8.5H17V9.5ZM20.9707 9.5H19.9707V10.5H20.9707H21.9707V9.5H20.9707ZM20.9707 10.5V9.5H17V10.5V11.5H20.9707V10.5ZM17 10.5L16.2929 9.79289L11.7929 14.2929L12.5 15L13.2071 15.7071L17.7071 11.2071L17 10.5ZM12.5 15L13.2071 14.2929L8.70711 9.79289L8 10.5L7.29289 11.2071L11.7929 15.7071L12.5 15ZM8 10.5V9.5H4V10.5V11.5H8V10.5ZM4 10.5H5V9.5H4H3V10.5H4ZM4 9.5V10.5H8V9.5V8.5H4V9.5ZM8 9.5L8.70711 10.2071L13.2071 5.70711L12.5 5L11.7929 4.29289L7.29289 8.79289L8 9.5ZM12.5 5L11.7929 5.70711L16.2929 10.2071L17 9.5L17.7071 8.79289L13.2071 4.29289L12.5 5Z" fill="#00FF00" mask="url(#path-1-inside-1_29172_57661)"/>
</svg>
